# xmcd
#
# Track frame offsets: 
#        150
#        13806
#        30510
#        45057
#        53358
#        65776
#        82449
#        95325
#        111443
#        122469
#        133821
#        150522
#
# Disc length: 2126 seconds
#
# Revision: 3
# Processed by: cddbd v1.5.2PL0 Copyright (c) Steve Scherf et al.
# Submitted via: ExactAudioCopyFreeDBPlugin 1.0
#
DISCID=96084c0c
DTITLE=Øystein Sunde - Bestefar
DYEAR=2016
DGENRE=Folk/Rock
TTITLE0=Du er på Youtube nå
TTITLE1=Jonny B Goode på sjukehjem
TTITLE2=Stussen på Tutten
TTITLE3=Jeg hogger gjerne ved
TTITLE4=Foggy Mountain Breakdown
TTITLE5=Pertentlig i Bentley
TTITLE6=Dødsbo
TTITLE7=Gamle halvveis glemte ord
TTITLE8=Sa dem
TTITLE9=Det må du bare huske på
TTITLE10=Å så deilig det skal bli
TTITLE11=Fjøsprat
EXTD=
EXTT0=
EXTT1=
EXTT2=
EXTT3=
EXTT4=
EXTT5=
EXTT6=
EXTT7=
EXTT8=
EXTT9=
EXTT10=
EXTT11=
PLAYORDER=
